<svg width="31" height="31" viewBox="0 0 31 31" fill="none" xmlns="http://www.w3.org/2000/svg">
<path d="M19.1385 11.8289C19.2596 11.8292 19.3759 11.7815 19.4618 11.6961C19.5476 11.6108 19.5961 11.4948 19.5964 11.3737C19.5968 11.2526 19.5491 11.1364 19.4637 11.0505C19.3783 10.9646 19.2624 10.9162 19.1413 10.9158C19.0137 10.9265 18.8853 10.9108 18.764 10.8697C18.6428 10.8287 18.5312 10.7631 18.4364 10.6772C18.3415 10.5912 18.2653 10.4866 18.2125 10.37C18.1598 10.2534 18.1315 10.1271 18.1296 9.99911C18.1296 9.49418 18.7167 9.22301 18.7341 9.21433C18.8453 9.16639 18.9329 9.07622 18.9776 8.96368C19.0223 8.85114 19.0205 8.72544 18.9726 8.61423C18.9246 8.50302 18.8345 8.41541 18.7219 8.37067C18.6094 8.32594 18.4837 8.32774 18.3725 8.37569C18.0491 8.5138 17.7702 8.73842 17.5662 9.02483C17.3623 9.31125 17.2413 9.64837 17.2166 9.99911C17.2163 10.2473 17.2666 10.493 17.3642 10.7212C17.4619 10.9494 17.605 11.1554 17.7848 11.3265C17.9646 11.4977 18.1773 11.6305 18.41 11.7168C18.6428 11.8032 18.8906 11.8413 19.1385 11.8289ZM18.5309 15.6162C18.2853 15.9331 18.1657 16.0915 17.7302 16.0367C17.6697 16.0266 17.6078 16.0288 17.5481 16.0432C17.4885 16.0575 17.4324 16.0838 17.3831 16.1203C17.3339 16.1568 17.2925 16.2029 17.2614 16.2558C17.2304 16.3087 17.2103 16.3673 17.2024 16.4281C17.1945 16.4889 17.1989 16.5507 17.2154 16.6097C17.2318 16.6688 17.2601 16.724 17.2983 16.7719C17.3366 16.8198 17.3841 16.8595 17.4381 16.8887C17.492 16.9178 17.5513 16.9358 17.6124 16.9415C17.702 16.9534 17.7922 16.9595 17.8826 16.9598C18.1586 16.9554 18.4289 16.8812 18.6684 16.744C18.9079 16.6069 19.1088 16.4113 19.2522 16.1755C19.496 15.86 19.6115 15.7368 19.9393 15.7518C20.5734 15.787 20.898 16.5051 20.9094 16.5252C20.9592 16.633 21.049 16.7172 21.1598 16.7599C21.2706 16.8026 21.3937 16.8005 21.503 16.7539C21.6122 16.7073 21.699 16.62 21.745 16.5105C21.7909 16.4009 21.7923 16.2778 21.749 16.1673C21.7275 16.1157 21.2011 14.9068 19.9891 14.8406C19.6981 14.823 19.408 14.8861 19.1507 15.023C18.8934 15.1599 18.6789 15.3652 18.5309 15.6162Z" fill="white"/>
<path d="M11.2817 6.52234C10.4458 6.51595 8.29185 6.78302 6.94053 9.77009C5.89782 12.0756 6.23428 13.678 6.3863 14.1733C6.24249 14.7714 5.81108 17.0517 7.02818 19.0509C8.096 20.8048 9.43089 21.2267 10.0582 21.3271C10.2108 21.6677 10.4292 21.9747 10.7009 22.2305C10.9726 22.4863 11.2923 22.6859 11.6414 22.8177V26.5612C11.6414 26.6823 11.6895 26.7984 11.7751 26.884C11.8607 26.9696 11.9768 27.0177 12.0979 27.0177H12.6535V27.5272C12.6539 27.9446 12.8198 28.3448 13.1149 28.64C13.4101 28.9352 13.8102 29.1013 14.2276 29.1018H16.7723C17.1898 29.1013 17.59 28.9353 17.8852 28.6401C18.1804 28.3449 18.3464 27.9447 18.3469 27.5272V27.02H18.902C19.0231 27.02 19.1392 26.9719 19.2248 26.8863C19.3105 26.8007 19.3586 26.6846 19.3586 26.5635V22.8419C19.7084 22.71 20.0287 22.5102 20.301 22.2539C20.5732 21.9976 20.7919 21.6899 20.9445 21.3486C21.5718 21.2486 22.9076 20.8272 23.9745 19.0728C25.1912 17.0732 24.7597 14.7928 24.6159 14.1948C24.768 13.6994 25.1044 12.0947 24.0617 9.792C22.7108 6.80493 20.5588 6.52873 19.721 6.54426C19.0924 5.57733 17.616 4.24335 15.5525 4.68984C13.4283 4.17579 11.9203 5.53944 11.2817 6.52234ZM15.4849 22.6309C16.0997 23.0202 16.815 23.221 17.5425 23.2085C17.8457 23.2061 18.148 23.1755 18.4455 23.1171V24.0229H12.5563V23.0939C12.8544 23.1524 13.1573 23.183 13.4611 23.1852C14.1747 23.1966 14.8767 23.0043 15.4849 22.6309ZM17.4338 27.5295C17.4336 27.7049 17.3638 27.873 17.2398 27.997C17.1158 28.121 16.9477 28.1908 16.7723 28.191H14.2276C14.0523 28.1908 13.8842 28.121 13.7603 27.997C13.6364 27.8729 13.5667 27.7048 13.5666 27.5295V27.02H17.4338V27.5295ZM18.4455 26.107H12.5563V24.936H18.4455V26.107ZM19.0687 7.23316C19.1134 7.31695 19.1833 7.38467 19.2684 7.4269C19.3535 7.46912 19.4496 7.48375 19.5434 7.46873C19.5658 7.46873 21.8585 7.13637 23.2299 10.1682C23.6603 11.0601 23.8799 12.039 23.8718 13.0292C23.4948 12.7822 23.0598 12.638 22.61 12.6111C22.6474 11.8546 22.5141 10.5046 21.2148 9.89472C21.1604 9.86791 21.1012 9.85221 21.0406 9.84855C20.98 9.84489 20.9193 9.85334 20.8621 9.8734C20.8048 9.89346 20.7521 9.92473 20.7071 9.96539C20.6621 10.006 20.6256 10.0553 20.5998 10.1102C20.574 10.1651 20.5594 10.2246 20.5569 10.2852C20.5544 10.3458 20.564 10.4064 20.5851 10.4632C20.6062 10.5201 20.6385 10.5722 20.68 10.6165C20.7215 10.6607 20.7714 10.6963 20.8267 10.721C21.9882 11.2661 21.6681 12.8918 21.6535 12.958C21.6394 13.0258 21.6407 13.0959 21.6575 13.1631C21.6742 13.2303 21.706 13.2929 21.7503 13.3461C21.7935 13.4007 21.8493 13.4441 21.9129 13.4724C21.9765 13.5008 22.046 13.5134 22.1155 13.5091C23.2464 13.4693 23.5856 13.9304 23.6837 14.1505C23.6813 14.2018 23.6871 14.2531 23.7011 14.3025C23.7079 14.3262 24.3653 16.6723 23.1943 18.5971C22.205 20.2218 21.0098 20.4337 20.6925 20.4611C20.6866 20.4611 20.6825 20.457 20.6766 20.456C20.3402 20.4038 20.0197 20.2773 19.7384 20.0856C19.4571 19.894 19.2221 19.642 19.0504 19.3481C19.0206 19.2957 18.9808 19.2498 18.9332 19.2129C18.8857 19.176 18.8312 19.1489 18.7731 19.1331C18.715 19.1173 18.6544 19.1132 18.5947 19.121C18.535 19.1287 18.4774 19.1482 18.4253 19.1783C18.3731 19.2084 18.3275 19.2486 18.2909 19.2964C18.2543 19.3442 18.2276 19.3988 18.2122 19.457C18.1968 19.5152 18.1931 19.5759 18.2012 19.6355C18.2094 19.6952 18.2292 19.7526 18.2597 19.8046C18.6452 20.4704 19.2597 20.9734 19.9886 21.2198C19.697 21.6469 19.2632 21.9565 18.7646 22.0936C18.7457 22.0986 18.727 22.1049 18.7089 22.1123C18.5963 22.1478 18.4822 22.1783 18.367 22.2036C17.9629 22.3125 17.5409 22.3376 17.1268 22.2775C16.7127 22.2174 16.3152 22.0732 15.9588 21.8539V5.53898C17.9652 5.24817 19.0235 7.14824 19.0687 7.23316ZM15.0434 5.51752V21.8329C14.687 22.0522 14.2896 22.1964 13.8755 22.2566C13.4614 22.3168 13.0394 22.2918 12.6353 22.1831C12.3159 22.1394 12.0087 22.0316 11.7321 21.866C11.4555 21.7005 11.2153 21.4807 11.026 21.2198C11.7627 20.9743 12.3838 20.4672 12.7718 19.7945C12.8313 19.6897 12.8471 19.5656 12.8155 19.4493C12.7839 19.3329 12.7076 19.2338 12.6032 19.1735C12.4988 19.1133 12.3748 19.0967 12.2582 19.1275C12.1417 19.1583 12.042 19.234 11.9811 19.338C11.8118 19.63 11.5797 19.8806 11.3016 20.0719C11.0235 20.2631 10.7064 20.3901 10.3732 20.4437C10.1979 20.4382 8.8826 20.3396 7.80839 18.5756C6.63694 16.6545 7.29434 14.3062 7.30118 14.2806V14.2614C7.30118 14.255 7.30666 14.2514 7.30803 14.2454C7.32675 14.1637 7.52762 13.4511 8.91273 13.4981C8.98166 13.5003 9.05019 13.4869 9.11319 13.4589C9.17619 13.4308 9.23201 13.3888 9.27647 13.3361C9.32093 13.2834 9.35287 13.2213 9.36989 13.1545C9.38691 13.0876 9.38856 13.0178 9.37474 12.9503C9.36058 12.8818 9.0401 11.2561 10.2015 10.7133C10.3111 10.6619 10.3959 10.569 10.4371 10.4552C10.4782 10.3413 10.4725 10.2157 10.4211 10.1061C10.3697 9.99645 10.2769 9.91173 10.163 9.87054C10.0491 9.82936 9.92355 9.8351 9.81392 9.8865C8.51418 10.4964 8.38087 11.8459 8.41831 12.6024C7.95701 12.6297 7.5117 12.7813 7.12953 13.0411C7.11473 12.0402 7.33357 11.0496 7.76867 10.1481C9.12684 7.14687 11.3629 7.4354 11.4551 7.44864C11.549 7.46436 11.6454 7.45006 11.7307 7.40776C11.8159 7.36546 11.8857 7.29732 11.9299 7.21307C11.945 7.19024 13.016 5.22763 15.0434 5.51752Z" fill="white"/>
<path d="M12.0619 8.60339C12.0134 8.71413 12.0109 8.83958 12.0548 8.9522C12.0987 9.06483 12.1855 9.15545 12.2961 9.20418C12.3025 9.20692 12.9014 9.4781 12.9014 9.98895C12.8996 10.1167 12.8716 10.2428 12.819 10.3593C12.7664 10.4757 12.6905 10.5802 12.5959 10.6661C12.5013 10.752 12.39 10.8176 12.269 10.8587C12.148 10.8998 12.0199 10.9157 11.8925 10.9052C11.7714 10.9052 11.6553 10.9533 11.5697 11.0389C11.4841 11.1245 11.436 11.2407 11.436 11.3617C11.436 11.4828 11.4841 11.5989 11.5697 11.6845C11.6553 11.7702 11.7714 11.8183 11.8925 11.8183C12.1404 11.8307 12.3882 11.7926 12.6209 11.7063C12.8536 11.6199 13.0663 11.4872 13.2461 11.3161C13.4259 11.145 13.569 10.9391 13.6667 10.7109C13.7644 10.4828 13.8147 10.2371 13.8145 9.98895C13.7898 9.63814 13.6688 9.30094 13.4648 9.0145C13.2607 8.72806 12.9816 8.50349 12.6581 8.36554C12.5474 8.31873 12.4228 8.31745 12.3111 8.36198C12.1995 8.40651 12.11 8.49325 12.0619 8.60339ZM13.3009 16.0261C12.8695 16.08 12.7462 15.9234 12.5002 15.6061C12.3533 15.3533 12.1386 15.1467 11.8805 15.0095C11.6223 14.8724 11.3309 14.8102 11.0393 14.83C9.82627 14.8966 9.30126 16.1051 9.27935 16.1567C9.23176 16.268 9.23038 16.3938 9.2755 16.5062C9.32061 16.6186 9.40854 16.7085 9.51994 16.7561C9.63133 16.8037 9.75706 16.805 9.86947 16.7599C9.98189 16.7148 10.0718 16.6269 10.1194 16.5155C10.1226 16.5077 10.449 15.7764 11.0895 15.7394C11.409 15.7266 11.5323 15.848 11.7743 16.1635C11.9177 16.3993 12.1186 16.5948 12.3581 16.732C12.5976 16.8691 12.8679 16.9434 13.1439 16.9478C13.2341 16.9475 13.3242 16.9414 13.4137 16.9296C13.5318 16.9118 13.6383 16.8484 13.7102 16.753C13.7822 16.6577 13.8139 16.5379 13.7985 16.4194C13.7832 16.3009 13.722 16.1932 13.6281 16.1193C13.5342 16.0455 13.4151 16.0113 13.2963 16.0243L13.3009 16.0261ZM28.5435 14.3575C28.6646 14.3575 28.7807 14.3094 28.8663 14.2238C28.9519 14.1381 29 14.022 29 13.9009C29 13.7799 28.9519 13.6637 28.8663 13.5781C28.7807 13.4925 28.6646 13.4444 28.5435 13.4444H26.6521C26.531 13.4444 26.4149 13.4925 26.3293 13.5781C26.2436 13.6637 26.1955 13.7799 26.1955 13.9009C26.1955 14.022 26.2436 14.1381 26.3293 14.2238C26.4149 14.3094 26.531 14.3575 26.6521 14.3575H28.5435ZM25.046 4.35493C24.9604 4.26935 24.8443 4.22127 24.7232 4.22127C24.6022 4.22127 24.4861 4.26935 24.4005 4.35493L23.0628 5.69211C23.0176 5.73382 22.9812 5.78425 22.956 5.84036C22.9307 5.89648 22.917 5.95713 22.9158 6.01866C22.9146 6.08019 22.9258 6.14134 22.9488 6.19842C22.9718 6.25551 23.0061 6.30735 23.0497 6.35084C23.0932 6.39432 23.1451 6.42856 23.2022 6.45148C23.2593 6.4744 23.3205 6.48554 23.382 6.48422C23.4436 6.4829 23.5042 6.46915 23.5603 6.44381C23.6164 6.41846 23.6667 6.38204 23.7084 6.33672L25.046 4.9991C25.1312 4.91354 25.179 4.79774 25.179 4.67702C25.179 4.5563 25.1312 4.44049 25.046 4.35493ZM15.9565 2.74887V0.858384C15.9565 0.737305 15.9084 0.621185 15.8228 0.53557C15.7372 0.449954 15.6211 0.401855 15.5 0.401855C15.3789 0.401855 15.2628 0.449954 15.1772 0.53557C15.0916 0.621185 15.0435 0.737305 15.0435 0.858384V2.74887C15.0435 2.86995 15.0916 2.98607 15.1772 3.07168C15.2628 3.1573 15.3789 3.2054 15.5 3.2054C15.6211 3.2054 15.7372 3.1573 15.8228 3.07168C15.9084 2.98607 15.9565 2.86995 15.9565 2.74887ZM6.5977 4.35493C6.51159 4.27177 6.39627 4.22576 6.27657 4.2268C6.15687 4.22784 6.04237 4.27585 5.95773 4.3605C5.87308 4.44514 5.82507 4.55964 5.82403 4.67934C5.82299 4.79904 5.86901 4.91436 5.95217 5.00047L7.28979 6.33809C7.33221 6.38048 7.38256 6.4141 7.43797 6.43702C7.49338 6.45995 7.55276 6.47174 7.61272 6.47172C7.67269 6.4717 7.73206 6.45987 7.78745 6.4369C7.84284 6.41393 7.89317 6.38028 7.93555 6.33787C7.97794 6.29545 8.01156 6.2451 8.03448 6.18969C8.05741 6.13428 8.0692 6.0749 8.06918 6.01494C8.06916 5.95497 8.05733 5.8956 8.03436 5.84021C8.01139 5.78482 7.97774 5.73449 7.93533 5.69211L6.5977 4.35493ZM4.80445 13.8179C4.80445 13.6968 4.75636 13.5807 4.67074 13.495C4.58512 13.4094 4.469 13.3613 4.34793 13.3613H2.45653C2.33545 13.3613 2.21933 13.4094 2.13371 13.495C2.0481 13.5807 2 13.6968 2 13.8179C2 13.9389 2.0481 14.0551 2.13371 14.1407C2.21933 14.2263 2.33545 14.2744 2.45653 14.2744H4.34793C4.469 14.2744 4.58512 14.2263 4.67074 14.1407C4.75636 14.0551 4.80445 13.9389 4.80445 13.8179ZM5.95399 23.447C6.0396 23.5325 6.1557 23.5806 6.27676 23.5806C6.39781 23.5806 6.51391 23.5325 6.59952 23.447L7.93715 22.1089C7.98075 22.0668 8.01553 22.0164 8.03946 21.9607C8.06339 21.905 8.07598 21.8451 8.07651 21.7845C8.07703 21.7238 8.06548 21.6637 8.04253 21.6076C8.01957 21.5515 7.98567 21.5005 7.94281 21.4577C7.89995 21.4148 7.84897 21.3809 7.79287 21.358C7.73676 21.335 7.67665 21.3235 7.61603 21.324C7.55541 21.3245 7.49551 21.3371 7.43981 21.361C7.38411 21.385 7.33373 21.4197 7.29162 21.4633L5.95399 22.8014C5.86841 22.887 5.82033 23.0031 5.82033 23.1242C5.82033 23.2452 5.86841 23.3613 5.95399 23.447ZM23.7084 21.4633C23.6663 21.4197 23.6159 21.385 23.5602 21.361C23.5045 21.3371 23.4446 21.3245 23.384 21.324C23.3234 21.3235 23.2632 21.335 23.2071 21.358C23.151 21.3809 23.1001 21.4148 23.0572 21.4577C23.0143 21.5005 22.9804 21.5515 22.9575 21.6076C22.9345 21.6637 22.923 21.7238 22.9235 21.7845C22.924 21.8451 22.9366 21.905 22.9605 21.9607C22.9845 22.0164 23.0192 22.0668 23.0628 22.1089L24.4005 23.447C24.4426 23.4906 24.493 23.5253 24.5487 23.5493C24.6044 23.5732 24.6643 23.5858 24.7249 23.5863C24.7855 23.5868 24.8456 23.5753 24.9017 23.5523C24.9578 23.5294 25.0088 23.4955 25.0517 23.4526C25.0945 23.4097 25.1284 23.3588 25.1514 23.3027C25.1743 23.2466 25.1859 23.1864 25.1854 23.1258C25.1848 23.0652 25.1722 23.0053 25.1483 22.9496C25.1244 22.8939 25.0896 22.8435 25.046 22.8014L23.7084 21.4633Z" fill="white"/>
</svg>
