<svg width="31" height="31" viewBox="0 0 31 31" fill="none" xmlns="http://www.w3.org/2000/svg">
<path d="M13.5777 24.1495C13.5254 24.1495 13.4688 24.1408 13.4166 24.119C13.2293 24.045 13.1161 23.849 13.1466 23.6444L14.2526 16.6734H10.9216C10.8415 16.6738 10.7628 16.6521 10.6942 16.6107C10.6256 16.5693 10.5698 16.5097 10.5328 16.4386C10.4959 16.3674 10.4793 16.2875 10.485 16.2075C10.4906 16.1276 10.5181 16.0507 10.5646 15.9855L16.8476 7.04207C16.9608 6.87661 17.1742 6.81565 17.3614 6.88532C17.5486 6.95498 17.6619 7.14656 17.6357 7.3425L16.8433 13.8171H20.0784C20.2395 13.8171 20.3875 13.9085 20.4616 14.0479C20.5356 14.1872 20.5269 14.3657 20.4354 14.4963L13.9347 23.9535C13.852 24.0754 13.717 24.1408 13.5777 24.1408V24.1495ZM11.7576 15.8069H14.762C14.8883 15.8069 15.0102 15.8635 15.0929 15.9593C15.1756 16.0551 15.2105 16.1858 15.1931 16.312L14.3092 21.8853L19.2511 14.6966H16.3513C16.225 14.6966 16.1074 14.6444 16.0247 14.5486C15.942 14.4528 15.9028 14.3309 15.9202 14.209L16.5603 8.9753L11.7576 15.8113V15.8069Z" fill="white"/>
<path d="M16.9608 29.0044H14.0392C13.9302 29.0048 13.825 28.9643 13.7444 28.891C13.6638 28.8176 13.6136 28.7167 13.6038 28.6081L13.3774 26.1829C11.984 25.9042 10.6386 25.3469 9.45428 24.5544L7.57765 26.1089C7.40349 26.2525 7.15095 26.2395 6.9942 26.0827L4.92598 24.0145C4.84889 23.9376 4.80345 23.8345 4.79861 23.7257C4.79377 23.6169 4.8299 23.5102 4.89986 23.4267L6.45428 21.5501C5.66183 20.3657 5.1045 19.0203 4.82584 17.6226L2.39623 17.3962C2.17417 17.3745 2 17.1872 2 16.9608V14.0392C1.99956 13.9302 2.04002 13.825 2.11338 13.7444C2.18674 13.6638 2.28767 13.6136 2.39623 13.6038L4.82584 13.3774C5.1045 11.984 5.66183 10.6386 6.45428 9.45428L4.89986 7.57765C4.75617 7.40349 4.76923 7.15095 4.92598 6.98984L6.9942 4.92163C7.1553 4.76053 7.40784 4.75182 7.57765 4.8955L9.45428 6.44993C10.6386 5.65748 11.984 5.10015 13.3774 4.82148L13.6038 2.39623C13.6255 2.17417 13.8128 2 14.0392 2H16.9608C17.0698 1.99956 17.175 2.04002 17.2556 2.11338C17.3362 2.18674 17.3864 2.28767 17.3962 2.39623L17.6226 4.82148C19.016 5.10015 20.3614 5.65748 21.5457 6.44993L23.4223 4.8955C23.5965 4.75182 23.8491 4.76488 24.0058 4.92163L26.074 6.98984C26.1511 7.0668 26.1966 7.16985 26.2014 7.27867C26.2062 7.38748 26.1701 7.49416 26.1001 7.57765L24.5457 9.45428C25.3382 10.6386 25.8955 11.984 26.1742 13.3774L28.6038 13.6038C28.8258 13.6255 29 13.8128 29 14.0392V16.9608C29.0004 17.0698 28.96 17.175 28.8866 17.2556C28.8133 17.3362 28.7123 17.3864 28.6038 17.3962L26.1742 17.6226C25.8955 19.016 25.3382 20.3614 24.5457 21.5501L26.1001 23.4267C26.2438 23.6009 26.2308 23.8534 26.074 24.0145L24.0058 26.0827C23.8447 26.2438 23.5922 26.2525 23.4223 26.1089L21.5457 24.5544C20.3614 25.3469 19.016 25.9042 17.6226 26.1829L17.3962 28.6081C17.3745 28.8302 17.1872 29.0044 16.9608 29.0044ZM14.4354 28.1335H16.5646L16.7866 25.7736C16.8041 25.5776 16.9521 25.4165 17.148 25.3861C18.6517 25.134 20.0782 24.5429 21.3193 23.6575C21.4804 23.5443 21.6981 23.5486 21.8505 23.6749L23.6792 25.1901L25.1858 23.6836L23.6705 21.8549C23.6088 21.781 23.5735 21.6885 23.5703 21.5923C23.5672 21.496 23.5963 21.4014 23.6531 21.3237C24.5385 20.0825 25.1297 18.656 25.3817 17.1524C25.4122 16.9565 25.5733 16.8084 25.7692 16.791L28.1292 16.5689V14.4398L25.7692 14.2177C25.6736 14.2094 25.5834 14.1692 25.5132 14.1038C25.443 14.0383 25.3967 13.9512 25.3817 13.8563C25.1297 12.3527 24.5385 10.9262 23.6531 9.68505C23.5399 9.52395 23.5443 9.30624 23.6705 9.15385L25.1858 7.32511L23.6792 5.81858L21.8505 7.33382C21.6981 7.46009 21.4804 7.4688 21.3193 7.35124C20.0782 6.46582 18.6517 5.87468 17.148 5.62264C17.0532 5.60765 16.9661 5.56136 16.9006 5.49113C16.8351 5.42091 16.795 5.33079 16.7866 5.23513L16.5646 2.87518H14.4354L14.2134 5.23513C14.1959 5.43106 14.0479 5.59217 13.852 5.62264C12.3483 5.87468 10.9218 6.46582 9.6807 7.35124C9.51959 7.46444 9.30189 7.46009 9.14949 7.33382L7.32076 5.81858L5.81423 7.32511L7.32947 9.15385C7.45574 9.30624 7.46444 9.52395 7.34688 9.68505C6.46147 10.9262 5.87033 12.3527 5.61829 13.8563C5.58781 14.0523 5.42671 14.2003 5.23077 14.2177L2.87083 14.4398V16.5689L5.23077 16.791C5.42671 16.8084 5.58781 16.9565 5.61829 17.1524C5.87033 18.656 6.46147 20.0825 7.34688 21.3237C7.46009 21.4848 7.45574 21.7025 7.32947 21.8549L5.81423 23.6836L7.32076 25.1901L9.14949 23.6749C9.30189 23.5486 9.51959 23.5399 9.6807 23.6575C10.9218 24.5429 12.3483 25.134 13.852 25.3861C14.0479 25.4165 14.1959 25.5776 14.2134 25.7736L14.4354 28.1335Z" fill="white"/>
<path d="M17.1611 22.4212L16.9565 21.5722C19.7736 20.8973 21.7373 18.4024 21.7373 15.5025C21.7373 13.2514 20.5138 11.1614 18.5501 10.0598L18.9768 9.30221C21.2148 10.5606 22.6081 12.9379 22.6081 15.5069C22.6081 18.8116 20.3658 21.6549 17.1611 22.4212ZM10.4688 20.5359C9.8069 19.8767 9.28217 19.0928 8.92494 18.2296C8.5677 17.3664 8.38505 16.441 8.38754 15.5069C8.38754 12.3501 10.508 9.53733 13.5385 8.6665L13.778 9.5025C11.1176 10.2645 9.25836 12.7333 9.25836 15.5025C9.25836 17.1701 9.90713 18.7376 11.0871 19.9176L10.4732 20.5315L10.4688 20.5359Z" fill="white"/>
</svg>
