<svg width="31" height="31" viewBox="0 0 31 31" fill="none" xmlns="http://www.w3.org/2000/svg">
<path d="M1.30967 17.8532L2.94631 18.4282C3.07901 18.8706 3.25594 19.3571 3.47711 19.7552L2.72514 21.3034C2.63667 21.4803 2.6809 21.6573 2.81361 21.8342L4.71565 23.7363C4.84835 23.869 5.06952 23.9132 5.24645 23.8247L6.79462 23.0728C7.23696 23.2939 7.67929 23.4709 8.12163 23.6036L8.69667 25.2402C8.7409 25.4171 8.91783 25.5498 9.09477 25.5498H11.793C11.9699 25.5498 12.1469 25.4171 12.1911 25.2402L12.7662 23.6036C13.2085 23.4709 13.6508 23.2939 14.0932 23.0728L15.6413 23.8247C15.7298 23.869 15.8625 23.869 15.951 23.8247C16.0394 24.0017 16.0837 24.1786 16.1721 24.3555L15.5971 25.5498C15.5086 25.7268 15.5529 25.9037 15.6856 26.0364L17.1895 27.5403C17.3222 27.673 17.5434 27.7173 17.7203 27.6288L18.9146 27.0538C19.2242 27.2307 19.5781 27.3634 19.8878 27.4519L20.3301 28.6904C20.3743 28.8673 20.5513 29 20.7282 29H22.8514C23.0283 29 23.2053 28.8673 23.2495 28.6904L23.6918 27.4519C24.0457 27.3634 24.3553 27.2307 24.665 27.0538L25.8593 27.6288C26.0362 27.7173 26.2131 27.673 26.3458 27.5403L27.8498 26.0364C27.9825 25.9037 28.0267 25.6825 27.9383 25.5056L27.3632 24.3113C27.5402 24.0017 27.6729 23.6478 27.7613 23.3382L28.9999 22.8958C29.1768 22.8516 29.3095 22.6747 29.3095 22.4977V20.3745C29.3095 20.1976 29.1768 20.0206 28.9999 19.9764L27.7613 19.5341C27.6729 19.1802 27.5402 18.8706 27.3632 18.5609L27.9383 17.3666C28.0267 17.1897 27.9825 17.0128 27.8498 16.8358L26.3458 15.3319C26.2131 15.1992 25.992 15.1549 25.8593 15.2434L24.665 15.9069C24.3553 15.73 24.0015 15.5973 23.6918 15.5088L23.2495 14.2703C23.2053 14.0933 23.0283 13.9606 22.8514 13.9606H20.7282C20.5513 13.9606 20.3743 14.0933 20.3301 14.2703L19.8878 15.5088V14.7568C19.8878 14.5799 19.7551 14.403 19.5781 14.3587L17.9415 13.7837C17.8088 13.3414 17.6318 12.899 17.3664 12.4567L18.1184 10.9085C18.2069 10.7316 18.1626 10.5547 18.0299 10.3777L16.1279 8.47568C15.9952 8.34298 15.774 8.29875 15.5971 8.38722L14.0489 9.13919C13.6066 8.91802 13.1643 8.74109 12.7219 8.60838L12.1469 6.97174C12.1026 6.79481 11.9257 6.66211 11.7488 6.66211H9.05053C8.8736 6.66211 8.69667 6.79481 8.65243 6.97174L8.0774 8.60838C7.63506 8.74109 7.19273 8.91802 6.75039 9.13919L5.24645 8.38722C5.06952 8.29875 4.89258 8.34298 4.71565 8.47568L2.81361 10.3777C2.6809 10.5104 2.63667 10.7316 2.72514 10.9085L3.47711 12.4567C3.25594 12.899 3.07901 13.3414 2.94631 13.7837L1.30967 14.3587C1.13273 14.403 1.00003 14.5799 1.00003 14.7568V17.4551C1.00003 17.632 1.13273 17.809 1.30967 17.8532ZM20.3301 16.2608C20.4628 16.2166 20.5955 16.1281 20.6397 15.9954L21.0378 14.8453H22.5418L22.9399 15.9954C22.9841 16.1281 23.1168 16.2608 23.2495 16.2608C23.6476 16.3935 24.0899 16.5262 24.4438 16.7474C24.5765 16.8358 24.7092 16.8358 24.8419 16.7474L25.9477 16.2166L27.0093 17.2782L26.4785 18.384C26.4343 18.5167 26.4343 18.6936 26.4785 18.7821C26.6997 19.1802 26.8766 19.5783 26.9651 19.9764C27.0093 20.1091 27.0978 20.2418 27.2305 20.286L28.3806 20.6841V22.1881L27.2305 22.5862C27.0978 22.6304 26.9651 22.7631 26.9651 22.8958C26.8324 23.3382 26.6997 23.7363 26.4785 24.1344C26.3901 24.2671 26.3901 24.3998 26.4785 24.5325L27.0093 25.6383L25.9477 26.6999L24.8419 26.1691C24.7092 26.1249 24.5765 26.1249 24.4438 26.1691C24.0457 26.3903 23.6476 26.5672 23.2495 26.6557C23.1168 26.6999 22.9841 26.7884 22.9399 26.9211L22.5418 28.0711H21.0378L20.6397 26.9653C20.5955 26.8326 20.4628 26.6999 20.3301 26.6999C19.932 26.5672 19.4896 26.4345 19.1358 26.2133C19.0031 26.1249 18.8704 26.1249 18.7377 26.2133L17.6318 26.7441L16.5702 25.6383L17.101 24.5325C17.1453 24.3998 17.1453 24.2228 17.101 24.1344C16.9241 23.869 16.7914 23.5593 16.7029 23.2055L18.0742 21.8342C18.2069 21.7015 18.2511 21.4803 18.1626 21.3034L17.3664 19.7552C17.5876 19.3129 17.7645 18.8706 17.9415 18.4282L19.5781 17.8532C19.7551 17.809 19.8878 17.632 19.8878 17.4551V16.4377C20.0205 16.3493 20.1974 16.305 20.3301 16.2608ZM1.8847 15.0665L3.43288 14.5357C3.56558 14.4914 3.69828 14.3587 3.69828 14.226C3.87521 13.6952 4.09638 13.1644 4.36178 12.6779C4.45025 12.5452 4.45025 12.4125 4.36178 12.2798L3.65404 10.7758L5.11375 9.31612L6.57346 10.0681C6.70616 10.1123 6.83886 10.1123 6.97156 10.0681C7.45813 9.80269 7.98893 9.58152 8.51973 9.40459C8.65243 9.36035 8.78513 9.27189 8.82937 9.13919L9.36017 7.59101H11.3949L11.9257 9.13919C11.9699 9.27189 12.1026 9.40459 12.2353 9.40459C12.7662 9.53729 13.297 9.75846 13.7835 10.0681C13.9162 10.1566 14.0489 10.1566 14.1816 10.0681L15.6413 9.31612L17.101 10.7758L16.4818 12.2798C16.4375 12.4125 16.4375 12.5452 16.4818 12.6779C16.7472 13.1644 16.9683 13.6952 17.1453 14.226C17.1895 14.3587 17.278 14.4914 17.4107 14.5357L18.9588 15.0665V17.1455L17.4107 17.6763C17.278 17.7205 17.1453 17.8532 17.1453 17.9859C17.0126 18.5167 16.7914 19.0475 16.4818 19.5783C16.3933 19.711 16.3933 19.8437 16.4818 19.9764L17.2337 21.4361L15.774 22.8958L14.2701 22.1438C14.1374 22.0996 14.0047 22.0996 13.872 22.1438C13.3854 22.4092 12.8546 22.6304 12.2796 22.8074C12.1469 22.8516 12.0142 22.9401 11.9699 23.0728L11.4391 24.6209H9.4044L8.8736 23.0728C8.82937 22.9401 8.69667 22.8074 8.56397 22.8074C8.03316 22.6747 7.50236 22.4535 7.01579 22.1438C6.88309 22.0554 6.75039 22.0554 6.61769 22.1438L5.15798 22.8958L3.65404 21.4361L4.40601 19.9764C4.45025 19.8437 4.45025 19.711 4.40601 19.5783C4.14061 19.0917 3.91944 18.5609 3.74251 18.0301C3.69828 17.8974 3.60981 17.7647 3.47711 17.7205L1.8847 17.1455V15.0665Z" fill="white"/>
<path d="M10.4217 20.3301C12.7219 20.3301 14.6239 18.428 14.6239 16.1279C14.6239 13.8277 12.7219 11.9257 10.4217 11.9257C8.12159 11.9257 6.21954 13.8277 6.21954 16.1279C6.21954 18.428 8.12159 20.3301 10.4217 20.3301ZM10.4217 12.7661C12.2353 12.7661 13.7392 14.2701 13.7392 16.0836C13.7392 17.8972 12.2353 19.4012 10.4217 19.4012C8.60815 19.4012 7.10421 17.8972 7.10421 16.0836C7.10421 14.2701 8.60815 12.7661 10.4217 12.7661ZM18.2068 7.94466L19.0915 8.2543C19.18 8.47547 19.2684 8.69664 19.3569 8.87357L18.9146 9.71401C18.8261 9.89094 18.8703 10.0679 19.003 10.2448L20.1089 11.3506C20.2416 11.4833 20.4627 11.5276 20.6397 11.4391L21.4801 11.041C21.7013 11.1295 21.8782 11.2179 22.0994 11.3064L22.409 12.1911C22.4533 12.368 22.6302 12.5007 22.8071 12.5007H24.3995C24.5765 12.5007 24.7534 12.368 24.7976 12.1911L25.1073 11.3064C25.3284 11.2179 25.5496 11.1295 25.7265 11.041L26.567 11.4391C26.7439 11.5276 26.9208 11.4833 27.0978 11.3506L28.2036 10.2448C28.3363 10.1121 28.3805 9.89094 28.2921 9.71401L27.894 8.87357C27.9824 8.6524 28.0709 8.43123 28.1594 8.2543L29.0441 7.94466C29.221 7.90043 29.3537 7.7235 29.3537 7.54656V5.95416C29.3537 5.77722 29.221 5.60029 29.0441 5.55605L28.1594 5.24642C28.0709 5.02525 27.9824 4.80408 27.894 4.62715L28.2921 3.78671C28.3805 3.60978 28.3363 3.43284 28.2036 3.25591L27.0978 2.15007C26.9651 2.01737 26.7439 1.97314 26.6112 2.0616L25.7708 2.45971C25.5496 2.37124 25.3284 2.28277 25.1515 2.19431L24.8419 1.30963C24.7976 1.1327 24.6207 1 24.4438 1H22.8514C22.6744 1 22.4975 1.1327 22.4533 1.30963L22.1436 2.19431C21.9224 2.28277 21.7013 2.37124 21.5243 2.45971L20.6839 2.0616C20.507 1.97314 20.33 2.01737 20.1973 2.15007L19.0915 3.25591C18.9588 3.38861 18.9146 3.60978 19.003 3.78671L19.4011 4.62715C19.3127 4.84832 19.2242 5.02525 19.1357 5.24642L18.2511 5.55605C18.0741 5.60029 17.9414 5.77722 17.9414 5.95416V7.54656C17.8972 7.7235 18.0299 7.90043 18.2068 7.94466ZM18.7819 6.26379L19.5781 5.99839C19.7108 5.95416 19.8435 5.82146 19.8435 5.68875C19.9319 5.37912 20.0646 5.11372 20.1973 4.80408C20.2858 4.67138 20.2858 4.53868 20.1973 4.40598L19.8435 3.65401L20.507 2.99051L21.2589 3.34438C21.3916 3.38861 21.5243 3.38861 21.657 3.34438C21.9225 3.16744 22.2321 3.07898 22.5417 2.99051C22.6744 2.94628 22.8071 2.85781 22.8514 2.72511L23.1168 1.9289H24.0457L24.3111 2.72511C24.3553 2.85781 24.488 2.99051 24.6207 2.99051C24.9303 3.07898 25.24 3.21168 25.5054 3.34438C25.6381 3.43284 25.7708 3.43284 25.9035 3.34438L26.6554 2.99051L27.3189 3.65401L26.9651 4.40598C26.9208 4.53868 26.9208 4.71562 26.9651 4.80408C27.142 5.06949 27.2305 5.37912 27.3189 5.68875C27.3632 5.82146 27.4516 5.95416 27.5843 5.99839L28.3805 6.26379V7.1927L27.6286 7.50233C27.4959 7.54656 27.3632 7.67926 27.3632 7.81196C27.2747 8.1216 27.142 8.43123 27.0093 8.69664C26.9208 8.82934 26.9208 8.96204 27.0093 9.09474L27.3632 9.84671L26.6997 10.5102L25.9477 10.1563C25.815 10.1121 25.6823 10.1121 25.5496 10.1563C25.2842 10.3333 24.9746 10.4217 24.6649 10.5102C24.5322 10.5544 24.3995 10.6429 24.3553 10.7756L24.0899 11.5718H23.1168L22.8514 10.7756C22.8071 10.6429 22.6744 10.5102 22.5417 10.5102C22.2321 10.4217 21.9667 10.289 21.657 10.1563C21.5243 10.0679 21.3916 10.0679 21.2589 10.1563L20.507 10.5102L19.8435 9.84671L20.1973 9.09474C20.2416 8.96204 20.2416 8.7851 20.1973 8.69664C20.0204 8.43123 19.9319 8.1216 19.8435 7.81196C19.7992 7.67926 19.7108 7.54656 19.5781 7.50233L18.7819 7.23693V6.26379Z" fill="white"/>
<path d="M23.6033 9.40422C25.0631 9.40422 26.2574 8.20991 26.2574 6.7502C26.2574 5.2905 25.0631 4.09619 23.6033 4.09619C22.1436 4.09619 20.9493 5.2905 20.9493 6.7502C20.9493 8.20991 22.1436 9.40422 23.6033 9.40422ZM23.6033 4.98086C24.5765 4.98086 25.3727 5.77707 25.3727 6.7502C25.3727 7.72334 24.5765 8.51954 23.6033 8.51954C22.6302 8.51954 21.834 7.72334 21.834 6.7502C21.834 5.77707 22.6302 4.98086 23.6033 4.98086ZM18.3838 21.48C18.3838 23.3378 19.932 24.886 21.7898 24.886C23.6476 24.886 25.1958 23.3378 25.1958 21.48C25.1958 19.6222 23.6476 18.074 21.7898 18.074C19.932 18.074 18.3838 19.5779 18.3838 21.48ZM21.7898 18.9587C23.161 18.9587 24.3111 20.1087 24.3111 21.48C24.3111 22.8512 23.161 24.0013 21.7898 24.0013C20.4185 24.0013 19.2685 22.8512 19.2685 21.48C19.2685 20.1087 20.3743 18.9587 21.7898 18.9587Z" fill="white"/>
</svg>
