<svg width="31" height="31" viewBox="0 0 31 31" fill="none" xmlns="http://www.w3.org/2000/svg">
<g clip-path="url(#clip0_62_402)">
<path d="M15.498 0.822754C23.7817 0.822754 30.4997 7.56406 30.5 15.8843C30.5 22.5236 26.2215 28.1566 20.2861 30.1616C20.029 30.2056 19.9434 30.1393 19.9219 30.1196C19.8838 30.0847 19.8458 30.0095 19.8457 29.9009C19.8457 29.6483 19.8506 29.1049 19.8555 28.3589C19.8603 27.6151 19.8652 26.6742 19.8652 25.6323C19.8652 24.585 19.6235 23.7452 19.2568 23.1255C20.743 22.8821 22.2577 22.4093 23.4678 21.3921C24.945 20.1503 25.8887 18.17 25.8887 15.0728C25.8886 13.3601 25.32 11.9277 24.3633 10.7847C24.5841 10.0784 24.8754 8.54583 24.1064 6.59521L24.0195 6.37549L23.7949 6.30225L23.6533 6.74268C23.7887 6.32218 23.7941 6.30322 23.7939 6.30225H23.793L23.79 6.30127C23.7888 6.30089 23.7875 6.3007 23.7861 6.30029C23.7829 6.29932 23.7793 6.29749 23.7754 6.29639C23.7677 6.29417 23.7584 6.29216 23.748 6.28955C23.7271 6.2843 23.7006 6.27869 23.6689 6.27295C23.6057 6.26146 23.5212 6.24954 23.415 6.24463C23.2022 6.23479 22.9042 6.24974 22.5176 6.33154C21.7778 6.48813 20.7166 6.89116 19.2939 7.83252C18.0737 7.51326 16.7822 7.35567 15.5049 7.34814H15.5C14.2177 7.35379 12.9271 7.51372 11.709 7.83154C10.2852 6.89014 9.22385 6.48613 8.4834 6.32959C8.09634 6.24778 7.79797 6.23283 7.58496 6.24268C7.47874 6.2476 7.3943 6.25952 7.33105 6.271C7.29947 6.27673 7.27284 6.28236 7.25195 6.2876C7.24166 6.29018 7.2323 6.29224 7.22461 6.29443C7.22082 6.29552 7.21702 6.29641 7.21387 6.29736L7.20801 6.30029H7.20703C7.20654 6.30045 7.20539 6.30084 7.3584 6.77686L7.20605 6.30029L6.98047 6.37256L6.89355 6.59326C6.12684 8.5409 6.41705 10.0744 6.63965 10.7827C5.68497 11.9247 5.11137 13.3572 5.11133 15.0708C5.11133 18.1606 6.05469 20.1409 7.52832 21.3862C8.73765 22.4081 10.2511 22.887 11.7354 23.1343C11.5169 23.5067 11.3429 23.9572 11.2402 24.4849C10.8293 24.6418 10.2571 24.792 9.66309 24.7388C9.01927 24.681 8.31008 24.3842 7.72266 23.4858L7.60645 23.2983C7.60397 23.294 7.60141 23.2882 7.59766 23.2817C7.58908 23.267 7.57678 23.2468 7.56152 23.2222C7.53104 23.1729 7.48708 23.1045 7.42969 23.0239C7.3154 22.8635 7.14541 22.6491 6.91992 22.4302C6.47196 21.9953 5.77343 21.5134 4.83691 21.4468L4.80762 21.4448H4.78027C4.76569 21.445 4.74568 21.4459 4.72168 21.4468C4.67383 21.4485 4.60651 21.4521 4.53125 21.4604C4.40063 21.4749 4.16822 21.5107 3.97266 21.6226C3.86925 21.6818 3.72969 21.7881 3.65137 21.9692C3.56658 22.1655 3.5882 22.3654 3.65723 22.5298C3.77472 22.8095 4.05756 23.059 4.41406 23.3032L4.44727 23.3257L4.4834 23.3433C4.48607 23.3447 4.4897 23.3466 4.49414 23.3491C4.51162 23.3591 4.54285 23.3775 4.58398 23.4058C4.66618 23.4622 4.79083 23.5589 4.93848 23.7075C5.23265 24.0036 5.62472 24.5147 5.95117 25.3491C5.95299 25.3545 5.95481 25.3604 5.95703 25.3667C5.96745 25.3963 5.98181 25.4369 6.00195 25.4858C6.04223 25.5837 6.10346 25.7176 6.19141 25.8726C6.3669 26.1817 6.65197 26.5808 7.09082 26.9468C7.90798 27.6281 9.19527 28.1379 11.1426 27.8501C11.1503 28.8544 11.1602 29.5897 11.1602 29.9009C11.1601 30.004 11.1238 30.0791 11.084 30.1157C11.0603 30.1374 10.9737 30.2026 10.7236 30.1626C4.78048 28.1584 0.5 22.5241 0.5 15.8843C0.500256 7.56398 7.21832 0.822763 15.498 0.822754Z" fill="white" stroke="white"/>
</g>
<defs>
<clipPath id="clip0_62_402">
<rect width="31" height="31" fill="white"/>
</clipPath>
</defs>
</svg>
