<svg width="28" height="29" viewBox="0 0 28 29" fill="none" xmlns="http://www.w3.org/2000/svg">
<path d="M19.0648 24.5338L15.5117 20.7372L20.2759 15.9179C22.7413 13.5496 21.3121 11.7642 20.3831 10.7804L17.4176 7.71981C15.3453 5.53366 13.6422 6.5903 12.9157 7.39189L7.97847 12.6878L4.23806 8.69107L10.7362 1.99938C14.2805 -1.67335 18.1917 0.541948 19.7043 2.10869L25.2066 7.61051C30.1372 12.3107 27.3861 16.0636 25.6711 17.9583L19.0648 24.5338Z" fill="white"/>
<path d="M17.2617 13.1095C17.2617 14.3344 16.2888 15.3273 15.0887 15.3273C13.8885 15.3273 12.9157 14.3344 12.9157 13.1095C12.9157 11.8847 13.8885 10.8917 15.0887 10.8917C16.2888 10.8917 17.2617 11.8847 17.2617 13.1095Z" fill="white"/>
<path d="M0 12.6894L4.23806 8.69107L19.0648 24.5338L14.9881 28.767L0 12.6894Z" fill="white"/>
</svg>
