<svg width="31" height="31" viewBox="0 0 31 31" fill="none" xmlns="http://www.w3.org/2000/svg">
<g clip-path="url(#clip0_16_965)">
<path d="M5.94125 26.322C6.00682 26.3574 6.07771 26.3751 6.14682 26.3751C6.29746 26.3751 6.44277 26.2954 6.5172 26.1554C6.63062 25.9498 6.55619 25.6911 6.35062 25.5777C5.04277 24.8564 4.56606 23.2083 5.28556 21.9004L6.5172 19.664C6.63062 19.4584 6.55619 19.1997 6.35062 19.0863C6.14505 18.9728 5.88632 19.0473 5.7729 19.2528L4.54125 21.4893C3.59492 23.2083 4.22404 25.3756 5.94125 26.322Z" fill="white"/>
<path d="M14.8835 20.4083C14.9491 20.4437 15.02 20.4614 15.0891 20.4614C15.238 20.4614 15.3833 20.3817 15.4613 20.2417C15.5747 20.0361 15.5002 19.7774 15.2947 19.664L6.57568 14.8597C6.37011 14.7463 6.11138 14.8207 5.99796 15.0263C5.88454 15.2318 5.95898 15.4906 6.16454 15.604L14.8835 20.4083Z" fill="white"/>
<path d="M23.3453 22.0991C21.9506 22.0991 20.6251 21.2732 20.0562 19.9087L19.0762 17.5517C18.9858 17.3355 19.0886 17.0856 19.3048 16.9953C19.521 16.9049 19.7709 17.0077 19.8613 17.2239L20.8413 19.5808C21.4154 20.9596 23.0015 21.6135 24.3803 21.0393C24.5965 20.9489 24.8463 21.0517 24.9367 21.2679C25.0271 21.4841 24.9243 21.734 24.7081 21.8244C24.2615 22.0105 23.799 22.0991 23.3453 22.0991ZM18.5144 14.0854C18.3478 14.0854 18.1901 13.9862 18.121 13.8231C18.0306 13.6069 18.1334 13.357 18.3496 13.2667L25.3284 10.3639C25.5446 10.2735 25.7944 10.3763 25.8848 10.5925C25.9752 10.8087 25.8724 11.0586 25.6562 11.1489L18.6775 14.0517C18.6243 14.0748 18.5694 14.0854 18.5144 14.0854Z" fill="white"/>
<path d="M7.65114 28.6117C6.75089 28.6117 5.86127 28.3849 5.05139 27.9383C3.78785 27.2418 2.86987 26.0952 2.46937 24.7094C2.06886 23.3236 2.23013 21.8633 2.92658 20.5998L9.06709 9.45474C9.76355 8.18942 10.9101 7.27322 12.296 6.87094C13.6818 6.46866 15.142 6.6317 16.4056 7.32816C17.6691 8.02461 18.5871 9.17119 18.9876 10.557C19.3899 11.9446 19.2268 13.4049 18.5304 14.6684L12.3916 25.8135C11.6952 27.077 10.5486 27.995 9.16279 28.3955C8.66304 28.5408 8.1562 28.6117 7.65114 28.6117ZM13.8058 7.50891C12.1985 7.50891 10.639 8.35955 9.81139 9.8641L3.67089 21.0092C2.46051 23.2084 3.26329 25.9818 5.46076 27.1922C6.15544 27.575 6.90861 27.7558 7.64937 27.7558C9.25671 27.7558 10.8162 26.9051 11.6438 25.4006L17.7861 14.2573C18.9965 12.058 18.1937 9.28461 15.9962 8.07423C15.3015 7.69145 14.5484 7.50891 13.8058 7.50891Z" fill="white"/>
<path d="M23.34 23.9474C22.6418 23.9474 21.9453 23.8109 21.2808 23.5362C19.9463 22.9869 18.9061 21.9484 18.3514 20.6175L16.6785 16.5983C16.5881 16.3821 16.6909 16.1322 16.9071 16.0418C17.1233 15.9514 17.3732 16.0542 17.4636 16.2704L19.1365 20.2896C20.1023 22.6076 22.7712 23.7099 25.0891 22.7441C27.4071 21.78 28.5076 19.1112 27.5436 16.7932L25.0998 10.9185L22.656 5.0456C21.9471 3.34079 20.2955 2.24028 18.4506 2.24028C17.8499 2.24028 17.2633 2.35902 16.7033 2.59117C14.9134 3.33547 13.7899 5.13421 13.9068 7.06762C13.921 7.30155 13.742 7.50357 13.5081 7.51775C13.2742 7.53193 13.0722 7.35294 13.058 7.11902C12.9198 4.82408 14.2542 2.68864 16.3772 1.8061C17.04 1.52965 17.7382 1.38965 18.4506 1.38965C19.5051 1.38965 20.5294 1.69623 21.4155 2.27572C22.3228 2.8694 23.0228 3.71471 23.441 4.71952L25.8848 10.5924L28.3286 16.4671C28.8833 17.7998 28.8851 19.2689 28.3357 20.6015C27.7863 21.9342 26.7479 22.9762 25.417 23.5309C24.7471 23.8091 24.0436 23.9474 23.34 23.9474Z" fill="white"/>
</g>
<defs>
<clipPath id="clip0_16_965">
<rect width="28" height="28" fill="white" transform="translate(2 1)"/>
</clipPath>
</defs>
</svg>
