<svg width="31" height="31" viewBox="0 0 31 31" fill="none" xmlns="http://www.w3.org/2000/svg">
<path d="M10.1634 23.5322C10.2028 23.4942 10.2342 23.4486 10.2558 23.3983C10.2774 23.348 10.2888 23.2939 10.2893 23.2391C10.2898 23.1843 10.2793 23.13 10.2586 23.0793C10.2378 23.0286 10.2072 22.9826 10.1685 22.9438C10.1298 22.9051 10.0837 22.8745 10.033 22.8537C9.9823 22.833 9.92799 22.8225 9.87322 22.823C9.81844 22.8235 9.76432 22.8349 9.71399 22.8565C9.66366 22.8781 9.61814 22.9095 9.58009 22.9489L9.15625 23.3728V19.7956L12.2793 16.6725C12.3806 16.5713 12.4752 16.4653 12.5645 16.3559C12.5994 16.3372 12.6328 16.3149 12.6623 16.2856L12.6625 16.2895C12.6625 16.3989 12.706 16.5039 12.7833 16.5812C12.8607 16.6586 12.9656 16.702 13.075 16.702C13.1844 16.702 13.2893 16.6586 13.3667 16.5812C13.444 16.5039 13.4875 16.3989 13.4875 16.2895C13.4876 16.1428 13.4484 15.9988 13.374 15.8724C13.2995 15.746 13.1926 15.6418 13.0643 15.5708C13.3426 15.0062 13.4874 14.3852 13.4875 13.7558V11.5456C13.4876 11.3989 13.4484 11.2549 13.374 11.1284C13.2995 11.002 13.1926 10.8979 13.0643 10.8268C13.3426 10.2623 13.4874 9.64138 13.4875 9.012V2.7123C13.4875 2.6029 13.444 2.49798 13.3667 2.42062C13.2893 2.34326 13.1844 2.2998 13.075 2.2998C12.9656 2.2998 12.8607 2.34326 12.7833 2.42062C12.706 2.49798 12.6625 2.6029 12.6625 2.7123V5.97848C12.5542 5.97803 12.447 5.99901 12.3469 6.04021C12.2468 6.08142 12.1558 6.14203 12.0792 6.21855L11.0913 7.20649L9.15625 4.04014V2.7123C9.15625 2.6029 9.11279 2.49798 9.03543 2.42062C8.95807 2.34326 8.85315 2.2998 8.74375 2.2998C8.63435 2.2998 8.52943 2.34326 8.45207 2.42062C8.37471 2.49798 8.33125 2.6029 8.33125 2.7123V4.04014L6.39621 7.20649L5.40827 6.21855C5.33168 6.14206 5.24072 6.08146 5.14062 6.04026C5.04051 5.99906 4.93325 5.97806 4.825 5.97848V2.7123C4.825 2.6029 4.78154 2.49798 4.70418 2.42062C4.62682 2.34326 4.5219 2.2998 4.4125 2.2998C4.3031 2.2998 4.19818 2.34326 4.12082 2.42062C4.04346 2.49798 4 2.6029 4 2.7123V9.012C4.00007 9.64138 4.14487 10.2623 4.42323 10.8268C4.2949 10.8979 4.18797 11.002 4.11354 11.1284C4.03911 11.2549 3.99991 11.3989 4 11.5456V13.7558C4.00007 14.3851 4.14487 15.0061 4.42323 15.5705C4.2949 15.6416 4.18797 15.7458 4.11354 15.8722C4.03911 15.9986 3.99991 16.1426 4 16.2893V18.4995C4 19.6013 4.429 20.6373 5.20821 21.4163L8.33125 24.5393V28.2873C8.33125 28.3967 8.37471 28.5016 8.45207 28.579C8.52943 28.6563 8.63435 28.6998 8.74375 28.6998C8.85315 28.6998 8.95807 28.6563 9.03543 28.579C9.11279 28.5016 9.15625 28.3967 9.15625 28.2873V24.5393L10.1634 23.5322ZM12.6625 11.5456V13.7558C12.6625 14.6373 12.3193 15.466 11.696 16.0893L9.15625 18.629V15.0518L12.2793 11.9288C12.3787 11.8294 12.4719 11.7256 12.5598 11.6184C12.5976 11.5997 12.6323 11.5751 12.6625 11.5456ZM12.6625 6.80183V9.012C12.6625 9.89352 12.3193 10.7222 11.696 11.3455L9.15625 13.8853V10.3081L12.6625 6.80183ZM8.74375 4.94702L10.4911 7.80647L8.74375 9.55403L6.9964 7.80668L8.74375 4.94702ZM8.33125 10.3083V13.8853L5.79149 11.3455C5.48409 11.0398 5.2404 10.6761 5.0745 10.2756C4.9086 9.87503 4.8238 9.44555 4.825 9.012V6.80183L8.33125 10.3083ZM5.20821 11.9288L8.33125 15.0518V18.629L5.79149 16.0893C5.48409 15.7835 5.2404 15.4199 5.0745 15.0193C4.9086 14.6188 4.8238 14.1893 4.825 13.7558V11.5456C4.85573 11.5765 4.891 11.5994 4.92792 11.6186C5.01558 11.7258 5.1088 11.8296 5.20821 11.9288ZM4.825 18.4995V16.2893C4.85573 16.3203 4.891 16.3432 4.92792 16.3623C5.01578 16.4696 5.10901 16.5733 5.20821 16.6725L8.33125 19.7956V23.3728L5.79149 20.833C5.48409 20.5273 5.2404 20.1636 5.0745 19.7631C4.9086 19.3625 4.8238 18.933 4.825 18.4995Z" fill="#555555"/>
<path d="M6.475 5.5998C6.5844 5.5998 6.68932 5.55634 6.76668 5.47899C6.84404 5.40163 6.8875 5.29671 6.8875 5.1873V2.7123C6.8875 2.6029 6.84404 2.49798 6.76668 2.42062C6.68932 2.34326 6.5844 2.2998 6.475 2.2998C6.3656 2.2998 6.26068 2.34326 6.18332 2.42062C6.10596 2.49798 6.0625 2.6029 6.0625 2.7123V5.1873C6.0625 5.29671 6.10596 5.40163 6.18332 5.47899C6.26068 5.55634 6.3656 5.5998 6.475 5.5998ZM11.0125 5.5998C11.1219 5.5998 11.2268 5.55634 11.3042 5.47899C11.3815 5.40163 11.425 5.29671 11.425 5.1873V2.7123C11.425 2.6029 11.3815 2.49798 11.3042 2.42062C11.2268 2.34326 11.1219 2.2998 11.0125 2.2998C10.9031 2.2998 10.7982 2.34326 10.7208 2.42062C10.6435 2.49798 10.6 2.6029 10.6 2.7123V5.1873C10.6 5.29671 10.6435 5.40163 10.7208 5.47899C10.7982 5.55634 10.9031 5.5998 11.0125 5.5998ZM30.3823 13.2488C30.3049 13.1715 30.2 13.128 30.0906 13.128C29.9812 13.128 29.8763 13.1715 29.799 13.2488L26.8927 16.1551C26.8164 16.0782 26.7257 16.0172 26.6257 15.9755C26.5258 15.9338 26.4186 15.9124 26.3103 15.9123H24.851L25.7218 12.305L27.2885 10.7383C27.3279 10.7003 27.3593 10.6547 27.381 10.6044C27.4026 10.5541 27.414 10.5 27.4144 10.4452C27.4149 10.3904 27.4045 10.3361 27.3837 10.2854C27.363 10.2347 27.3324 10.1887 27.2936 10.1499C27.2549 10.1112 27.2088 10.0806 27.1581 10.0598C27.1074 10.0391 27.0531 10.0287 26.9984 10.0291C26.9436 10.0296 26.8895 10.041 26.8391 10.0626C26.7888 10.0842 26.7433 10.1156 26.7052 10.155L25.1386 11.7217L21.5312 12.5923V11.1331C21.5312 11.0248 21.5097 10.9176 21.468 10.8177C21.4264 10.7178 21.3653 10.6271 21.2885 10.5508L24.1948 7.64457C24.2342 7.60652 24.2656 7.561 24.2872 7.51067C24.3088 7.46034 24.3202 7.40622 24.3207 7.35144C24.3212 7.29667 24.3107 7.24236 24.29 7.19166C24.2692 7.14097 24.2386 7.09491 24.1999 7.05618C24.1611 7.01745 24.1151 6.98682 24.0644 6.96608C24.0137 6.94534 23.9594 6.9349 23.9046 6.93538C23.8498 6.93585 23.7957 6.94723 23.7454 6.96885C23.6951 6.99047 23.6495 7.02189 23.6115 7.06129L20.123 10.5498L18.6145 12.0583C18.1695 12.5034 17.8328 13.0449 17.6304 13.6409C17.4895 13.6003 17.3402 13.5983 17.1982 13.6351C17.0562 13.6718 16.9266 13.746 16.823 13.8498L15.3145 15.3583C14.8695 15.8034 14.5328 16.3449 14.3304 16.9409C14.1895 16.9003 14.0402 16.8983 13.8982 16.9351C13.7562 16.9718 13.6266 17.046 13.523 17.1498L12.0145 18.6583C11.6302 19.0404 11.3255 19.495 11.1181 19.9957C10.9108 20.4963 10.8047 21.0332 10.8063 21.5751V26.054L9.79274 27.0675C9.75334 27.1056 9.72191 27.1511 9.7003 27.2014C9.67868 27.2518 9.6673 27.3059 9.66682 27.3607C9.66635 27.4154 9.67678 27.4698 9.69752 27.5204C9.71826 27.5711 9.74889 27.6172 9.78762 27.6559C9.82636 27.6947 9.87241 27.7253 9.92311 27.746C9.9738 27.7668 10.0281 27.7772 10.0829 27.7767C10.1377 27.7763 10.1918 27.7649 10.2421 27.7433C10.2924 27.7216 10.338 27.6902 10.376 27.6508L11.3895 26.6373H15.8684C16.4104 26.6388 16.9472 26.5327 17.4479 26.3253C17.9485 26.118 18.4031 25.8133 18.7852 25.4291L20.2937 23.9206C20.3976 23.8169 20.4717 23.6873 20.5085 23.5453C20.5452 23.4032 20.5432 23.2539 20.5027 23.1129C21.0987 22.9106 21.6402 22.5739 22.0852 22.1289L23.5938 20.6204C23.6976 20.5167 23.7717 20.3871 23.8085 20.2451C23.8452 20.103 23.8432 19.9537 23.8027 19.8127C24.3987 19.6104 24.9402 19.2737 25.3852 18.8287L26.8937 17.3206L30.3823 13.8321C30.4596 13.7547 30.503 13.6498 30.503 13.5404C30.503 13.431 30.4596 13.3261 30.3823 13.2488ZM24.7888 12.6548L24.0023 15.9123H21.5312V13.441L24.7888 12.6548ZM19.1977 12.6416L20.7063 11.1331V16.1538L18.2312 18.6288V14.9751C18.2312 14.0936 18.5744 13.2649 19.1977 12.6416ZM15.8977 15.9416L17.4062 14.4331V19.4538L14.9312 21.9288V18.2751C14.9312 17.3936 15.2744 16.5649 15.8977 15.9416ZM11.6312 21.5751C11.6312 20.6936 11.9745 19.8649 12.5977 19.2416L14.1062 17.7331V22.7538L11.6312 25.2288V21.5751ZM19.7105 23.3373L18.202 24.8458C17.8962 25.1532 17.5326 25.3969 17.132 25.5628C16.7315 25.7287 16.302 25.8135 15.8684 25.8123H12.2145L12.9688 25.058L12.969 25.0578L14.6895 23.3373H19.7105ZM23.0105 20.0373L21.502 21.5458C21.1962 21.8532 20.8326 22.0969 20.432 22.2628C20.0315 22.4287 19.602 22.5135 19.1684 22.5123H15.5145L17.9895 20.0373H23.0105ZM24.802 18.2458C24.4962 18.5532 24.1326 18.7969 23.732 18.9628C23.3315 19.1287 22.902 19.2135 22.4684 19.2123H18.8145L21.2895 16.7373H26.3105L24.802 18.2458Z" fill="white"/>
<path d="M22.6834 11.5517C22.7216 11.5901 22.7671 11.6205 22.8171 11.6413C22.8672 11.6621 22.9208 11.6728 22.975 11.6728C23.0292 11.6728 23.0829 11.6621 23.1329 11.6413C23.1829 11.6205 23.2284 11.5901 23.2666 11.5517L25.6843 9.13401C25.7237 9.09596 25.7551 9.05044 25.7767 9.00012C25.7984 8.94979 25.8097 8.89566 25.8102 8.84089C25.8107 8.78612 25.8003 8.7318 25.7795 8.6811C25.7588 8.63041 25.7281 8.58435 25.6894 8.54562C25.6507 8.50689 25.6046 8.47626 25.5539 8.45552C25.5032 8.43478 25.4489 8.42434 25.3941 8.42482C25.3394 8.4253 25.2853 8.43668 25.2349 8.45829C25.1846 8.47991 25.1391 8.51134 25.101 8.55074L22.6834 10.9684C22.606 11.0458 22.5626 11.1507 22.5626 11.26C22.5626 11.3694 22.606 11.4743 22.6834 11.5517ZM25.8918 14.7601C25.9724 14.8407 26.0778 14.881 26.1834 14.881C26.289 14.881 26.3946 14.8407 26.4751 14.7601L28.8927 12.3424C28.9321 12.3044 28.9636 12.2589 28.9852 12.2085C29.0068 12.1582 29.0182 12.1041 29.0186 12.0493C29.0191 11.9945 29.0087 11.9402 28.9879 11.8895C28.9672 11.8388 28.9366 11.7928 28.8978 11.754C28.8591 11.7153 28.8131 11.6847 28.7624 11.6639C28.7117 11.6432 28.6573 11.6328 28.6026 11.6332C28.5478 11.6337 28.4937 11.6451 28.4433 11.6667C28.393 11.6883 28.3475 11.7198 28.3095 11.7592L25.8918 14.1768C25.8145 14.2542 25.771 14.3591 25.771 14.4685C25.771 14.5778 25.8145 14.6827 25.8918 14.7601Z" fill="#555555"/>
</svg>
