<svg width="40" height="40" viewBox="0 0 40 40" fill="none" xmlns="http://www.w3.org/2000/svg">
<path d="M13.6122 29.4484C14.6243 29.4484 15.4425 28.6241 15.4425 27.6181C15.4425 26.6059 14.6182 25.7878 13.6122 25.7878C12.6061 25.7878 11.7819 26.612 11.7819 27.6181C11.7819 28.6241 12.6061 29.4484 13.6122 29.4484ZM13.6122 26.9575C13.9758 26.9575 14.2667 27.2544 14.2667 27.612C14.2667 27.9756 13.9697 28.2666 13.6122 28.2666C13.2546 28.2666 12.9576 27.9696 12.9576 27.612C12.9576 27.2544 13.2546 26.9575 13.6122 26.9575ZM8.54549 16.7696C8.54549 15.7575 7.72125 14.9393 6.71519 14.9393C5.70913 14.9393 4.88489 15.7575 4.88489 16.7696C4.88489 17.7817 5.70913 18.5999 6.71519 18.5999C7.72125 18.5999 8.54549 17.7817 8.54549 16.7696ZM6.06065 16.7696C6.06065 16.4059 6.35761 16.115 6.71519 16.115C7.07883 16.115 7.36974 16.412 7.36974 16.7696C7.36974 17.1332 7.07277 17.4241 6.71519 17.4241C6.35155 17.4241 6.06065 17.1332 6.06065 16.7696ZM21.6364 6.67867C22.6485 6.67867 23.4667 5.85443 23.4667 4.84837C23.4667 3.83625 22.6425 3.01807 21.6364 3.01807C20.6243 3.01807 19.8061 3.84231 19.8061 4.84837C19.8061 5.85443 20.6303 6.67867 21.6364 6.67867ZM21.6364 4.19382C22 4.19382 22.2909 4.49079 22.2909 4.84837C22.2909 5.20595 22 5.50291 21.6364 5.50291C21.2728 5.50291 20.9819 5.20595 20.9819 4.84837C20.9819 4.49079 21.2788 4.19382 21.6364 4.19382Z" fill="white"/>
<path d="M37.1758 23.5209L34.9273 20.2664C35.2182 19.7997 35.394 19.2543 35.394 18.6664C35.394 17.9452 35.1334 17.2967 34.7091 16.7755C34.7091 16.7573 34.7213 16.7391 34.7213 16.7209V12.8906C34.8304 12.7573 34.9394 12.6118 35.0243 12.4543C35.3711 11.8311 35.477 11.1022 35.3217 10.406C35.1663 9.70995 34.7607 9.09516 34.1819 8.67849L24.2243 1.49061C23.7248 1.13138 23.1553 0.88148 22.5527 0.75721C21.9501 0.632941 21.3282 0.637095 20.7273 0.769401C19.5152 1.04213 18.4728 1.81789 17.8667 2.90273C17.6425 3.3088 17.4849 3.75122 17.394 4.1997C17.3637 4.21789 17.3334 4.22395 17.3031 4.24819L6.55157 12.7815C5.52218 12.8243 4.5491 13.263 3.83541 14.0061C3.12171 14.7491 2.72257 15.7391 2.72127 16.7694C2.72127 18.5209 3.8546 20.0058 5.4243 20.5452L9.75763 29.533C9.84854 29.7149 9.95157 29.8906 10.0667 30.0603L7.43642 33.733H5.16975C3.81824 33.733 2.71521 34.8361 2.71521 36.1876V38.7452C2.71521 39.0724 2.97582 39.333 3.30309 39.333H24.8182C25.1455 39.333 25.4061 39.0724 25.4061 38.7452V36.1876C25.4061 34.8361 24.3031 33.733 22.9516 33.733H20.697L17.6304 29.4543C17.794 29.1027 17.9152 28.727 17.9758 28.3391C18.1758 27.1088 17.8364 25.8543 17.0546 24.8906L10.8243 17.2421L20.7576 9.36334L30.0001 13.1633V16.7209C30.0001 16.7391 30.0122 16.7573 30.0122 16.7755C29.594 17.2967 29.3273 17.9512 29.3273 18.6664C29.3273 19.2543 29.5031 19.7997 29.794 20.2664L27.5455 23.5209C27.4061 23.7209 27.4061 23.9876 27.5455 24.1876L29.0546 26.3755C29.1698 26.5391 29.3516 26.63 29.5395 26.63C29.6546 26.63 29.7698 26.5936 29.8728 26.527C30.1395 26.3452 30.2061 25.9755 30.0243 25.7088L28.7455 23.8543L30.6182 21.1391C31.1152 21.4906 31.7091 21.6967 32.3637 21.6967C33.0122 21.6967 33.6122 21.4906 34.1031 21.1391L35.9758 23.8543L34.697 25.7088C34.5152 25.9755 34.5819 26.3391 34.8485 26.527C34.9775 26.6143 35.1356 26.6473 35.2887 26.6189C35.4418 26.5906 35.5776 26.5031 35.6667 26.3755L37.1758 24.1876C37.3152 23.9876 37.3152 23.7209 37.1758 23.5209ZM18.897 3.48455C19.115 3.09134 19.4141 2.74906 19.7747 2.48049C20.1352 2.21193 20.5488 2.02323 20.9879 1.92698C21.2182 1.87849 21.4485 1.84819 21.6788 1.84819C22.3395 1.84819 22.994 2.05425 23.5395 2.44819L33.5031 9.63001C33.8467 9.87885 34.0873 10.245 34.1793 10.6592C34.2712 11.0733 34.2083 11.5069 34.0023 11.8778C33.7963 12.2487 33.4616 12.5313 33.0614 12.6721C32.6612 12.813 32.2232 12.8023 31.8304 12.6421L20.4728 7.9694C20.0576 7.79816 19.6832 7.54123 19.374 7.21539C19.0649 6.88955 18.828 6.50215 18.6788 6.07849C18.3698 5.22395 18.4546 4.27849 18.897 3.48455ZM17.3758 5.69667C17.4182 5.95728 17.4728 6.21183 17.5637 6.46637C17.9143 7.46783 18.6192 8.3064 19.5455 8.82395L10.6122 15.9088C10.4683 15.2607 10.1652 14.6587 9.73032 14.1572C9.29543 13.6556 8.74242 13.2703 8.12127 13.0361L17.3758 5.69667ZM3.89097 16.7694C3.89097 15.2118 5.15763 13.9512 6.70915 13.9512C8.26672 13.9512 9.52733 15.2179 9.52733 16.7694C9.52733 18.327 8.26066 19.5876 6.70915 19.5876C5.15763 19.5876 3.89097 18.327 3.89097 16.7694ZM24.2304 36.1876V38.1573H3.89097V36.1876C3.89097 35.4846 4.46672 34.9088 5.16975 34.9088H22.9516C23.6546 34.9088 24.2304 35.4785 24.2304 36.1876ZM19.2546 33.733H8.87279L10.8546 30.9633C11.3213 31.3633 11.8728 31.6603 12.4788 31.83C12.8728 31.9391 13.2728 31.9936 13.6728 31.9936C14.491 31.9936 15.3091 31.7633 16.0122 31.3149C16.3637 31.0906 16.6728 30.8179 16.9395 30.5088L19.2546 33.733ZM16.8182 28.1452C16.6728 29.0421 16.1516 29.8361 15.3879 30.3209C14.6243 30.8058 13.6849 30.9452 12.8061 30.6967C12.3741 30.5734 11.9731 30.3601 11.6294 30.0707C11.2858 29.7814 11.0072 29.4226 10.8122 29.0179L6.83036 20.7573C7.56571 20.736 8.28087 20.5119 8.8969 20.1098C9.51292 19.7076 10.0059 19.1431 10.3213 18.4785L16.1455 25.6239C16.428 25.9736 16.6339 26.3787 16.7498 26.8131C16.8656 27.2474 16.889 27.7012 16.8182 28.1452ZM31.3758 13.727C31.7334 13.8724 32.1091 13.9452 32.4788 13.9452C32.8485 13.9452 33.2061 13.8724 33.5455 13.7391V15.8724C33.1819 15.7149 32.7819 15.63 32.3576 15.63C31.9394 15.63 31.5334 15.7149 31.1698 15.8724V13.6421L31.3758 13.727ZM30.5031 18.6664C30.5031 17.6421 31.3395 16.8058 32.3637 16.8058C33.3879 16.8058 34.2243 17.6421 34.2243 18.6664C34.2243 19.6906 33.394 20.527 32.3637 20.527C31.3395 20.527 30.5031 19.6906 30.5031 18.6664Z" fill="#555555"/>
</svg>
