<svg width="31" height="31" viewBox="0 0 31 31" fill="none" xmlns="http://www.w3.org/2000/svg">
<path d="M17.3984 13.0742H13.6016C13.3103 13.0742 13.0742 13.3104 13.0742 13.6016V17.3984C13.0742 17.6896 13.3103 17.9258 13.6016 17.9258H17.3984C17.6897 17.9258 17.9258 17.6896 17.9258 17.3984V13.6016C17.9258 13.3104 17.6897 13.0742 17.3984 13.0742ZM16.8711 16.8711H14.1289V14.1289H16.8711V16.8711ZM27.207 4.84766C26.2184 4.84766 25.4141 5.65196 25.4141 6.64062C25.4141 7.62929 26.2184 8.43359 27.207 8.43359C28.1957 8.43359 29 7.62929 29 6.64062C29 5.65196 28.1957 4.84766 27.207 4.84766ZM27.207 7.37891C26.7999 7.37891 26.4688 7.04773 26.4688 6.64062C26.4688 6.23352 26.7999 5.90234 27.207 5.90234C27.6141 5.90234 27.9453 6.23352 27.9453 6.64062C27.9453 7.04773 27.6141 7.37891 27.207 7.37891ZM24.496 6.26621C24.3968 6.1677 24.2629 6.11219 24.1231 6.1117C23.9839 6.1117 23.8479 6.16813 23.7498 6.26621C23.6514 6.36538 23.5961 6.49934 23.5958 6.63904C23.5958 6.77773 23.6517 6.91379 23.7498 7.01188C23.8491 7.11041 23.9832 7.16591 24.1231 7.16639C24.2618 7.16639 24.3979 7.10996 24.496 7.01188C24.594 6.91379 24.6505 6.77773 24.6505 6.63904C24.6505 6.50035 24.594 6.3643 24.496 6.26621Z" fill="white"/>
<path d="M23.9129 16.0273C24.1387 16.7595 24.8215 17.293 25.6266 17.293C26.6153 17.293 27.4196 16.4887 27.4196 15.5C27.4196 14.5113 26.6152 13.707 25.6266 13.707C24.8214 13.707 24.1386 14.2405 23.9129 14.9727H20.668V10.8594C20.668 10.5682 20.4319 10.332 20.1406 10.332H19.2969V7.16639H22.2512C22.5424 7.16639 22.7785 6.93024 22.7785 6.63904C22.7785 6.34784 22.5424 6.1117 22.2512 6.1117H18.7695C18.4783 6.1117 18.2422 6.34784 18.2422 6.63904V10.332H16.0273V7.08713C16.7594 6.86137 17.293 6.17862 17.293 5.37342C17.293 4.38475 16.4887 3.58045 15.5 3.58045C14.5113 3.58045 13.707 4.38475 13.707 5.37342C13.707 6.17862 14.2406 6.86142 14.9727 7.08713V10.332H10.8594C10.5681 10.332 10.332 10.5682 10.332 10.8594V11.7031H7.16633V5.50715C7.89924 5.28192 8.43359 4.59875 8.43359 3.79297C8.43359 2.8043 7.62929 2 6.64063 2C5.65196 2 4.84766 2.8043 4.84766 3.79297C4.84766 4.59759 5.38043 5.27997 6.11165 5.5062V12.2305C6.11165 12.5217 6.34774 12.7578 6.63899 12.7578H10.332V14.9727H7.08707C6.86132 14.2405 6.17851 13.707 5.37337 13.707C4.3847 13.707 3.5804 14.5113 3.5804 15.5C3.5804 16.4887 4.3847 17.293 5.37337 17.293C6.17857 17.293 6.86137 16.7595 7.08707 16.0273H10.332V20.1406C10.332 20.4318 10.5681 20.668 10.8594 20.668H11.7031V23.8336H8.74884C8.45759 23.8336 8.2215 24.0698 8.2215 24.361C8.2215 24.6522 8.45759 24.8883 8.74884 24.8883H12.2305C12.5217 24.8883 12.7578 24.6522 12.7578 24.361V20.668H14.9727V23.9129C14.2406 24.1386 13.707 24.8214 13.707 25.6266C13.707 26.6152 14.5113 27.4195 15.5 27.4195C16.4887 27.4195 17.293 26.6152 17.293 25.6266C17.293 24.8214 16.7594 24.1386 16.0273 23.9129V20.668H20.1406C20.4319 20.668 20.668 20.4318 20.668 20.1406V19.2969H23.8337V25.4928C23.1008 25.7181 22.5664 26.4013 22.5664 27.207C22.5664 28.1957 23.3707 29 24.3594 29C25.348 29 26.1523 28.1957 26.1523 27.207C26.1523 26.4024 25.6196 25.72 24.8884 25.4938V18.7695C24.8884 18.4783 24.6523 18.2422 24.361 18.2422H20.668V16.0273H23.9129ZM25.6266 14.7617C26.0337 14.7617 26.3649 15.0929 26.3649 15.5C26.3649 15.9071 26.0337 16.2383 25.6266 16.2383C25.2195 16.2383 24.8884 15.9071 24.8884 15.5C24.8884 15.0929 25.2195 14.7617 25.6266 14.7617ZM6.64063 4.53125C6.23352 4.53125 5.90234 4.20008 5.90234 3.79297C5.90234 3.38586 6.23352 3.05469 6.64063 3.05469C7.04773 3.05469 7.37891 3.38586 7.37891 3.79297C7.37891 4.20008 7.04773 4.53125 6.64063 4.53125ZM5.37337 16.2383C4.96626 16.2383 4.63508 15.9071 4.63508 15.5C4.63508 15.0929 4.96626 14.7617 5.37337 14.7617C5.78048 14.7617 6.11165 15.0929 6.11165 15.5C6.11165 15.9071 5.78048 16.2383 5.37337 16.2383ZM14.7617 5.37342C14.7617 4.96631 15.0929 4.63514 15.5 4.63514C15.9071 4.63514 16.2383 4.96631 16.2383 5.37342C16.2383 5.78053 15.9071 6.1117 15.5 6.1117C15.0929 6.1117 14.7617 5.78053 14.7617 5.37342ZM16.2383 25.6266C16.2383 26.0337 15.9071 26.3649 15.5 26.3649C15.0929 26.3649 14.7617 26.0337 14.7617 25.6266C14.7617 25.2195 15.0929 24.8883 15.5 24.8883C15.9071 24.8883 16.2383 25.2195 16.2383 25.6266ZM19.6133 19.6133H11.3867V11.3867H19.6133V19.6133ZM24.3594 26.4688C24.7665 26.4688 25.0977 26.7999 25.0977 27.207C25.0977 27.6141 24.7665 27.9453 24.3594 27.9453C23.9523 27.9453 23.6211 27.6141 23.6211 27.207C23.6211 26.7999 23.9523 26.4688 24.3594 26.4688ZM3.79297 22.5664C2.8043 22.5664 2 23.3707 2 24.3594C2 25.348 2.8043 26.1523 3.79297 26.1523C4.78163 26.1523 5.58594 25.348 5.58594 24.3594C5.58594 23.3707 4.78163 22.5664 3.79297 22.5664ZM3.79297 25.0977C3.38586 25.0977 3.05469 24.7665 3.05469 24.3594C3.05469 23.9523 3.38586 23.6211 3.79297 23.6211C4.20008 23.6211 4.53125 23.9523 4.53125 24.3594C4.53125 24.7665 4.20008 25.0977 3.79297 25.0977ZM7.25076 23.9881C7.15268 23.89 7.01662 23.8336 6.87793 23.8336C6.73924 23.8336 6.60318 23.89 6.5051 23.9881C6.40655 24.0872 6.35103 24.2212 6.35059 24.361C6.35059 24.4996 6.40701 24.6357 6.5051 24.7337C6.60318 24.8318 6.73924 24.8883 6.87793 24.8883C7.01662 24.8883 7.15268 24.8319 7.25076 24.7337C7.3493 24.6346 7.40482 24.5007 7.40527 24.361C7.40527 24.2222 7.34885 24.0862 7.25076 23.9881Z" fill="white"/>
<path d="M3.79297 22.5664C2.8043 22.5664 2 23.3707 2 24.3594C2 25.348 2.8043 26.1523 3.79297 26.1523C4.78163 26.1523 5.58594 25.348 5.58594 24.3594C5.58594 23.3707 4.78163 22.5664 3.79297 22.5664ZM3.79297 25.0977C3.38586 25.0977 3.05469 24.7665 3.05469 24.3594C3.05469 23.9523 3.38586 23.6211 3.79297 23.6211C4.20008 23.6211 4.53125 23.9523 4.53125 24.3594C4.53125 24.7665 4.20008 25.0977 3.79297 25.0977ZM7.25076 23.9881C7.15268 23.89 7.01662 23.8336 6.87793 23.8336C6.73924 23.8336 6.60318 23.89 6.5051 23.9881C6.40655 24.0872 6.35103 24.2212 6.35059 24.361C6.35059 24.4996 6.40701 24.6357 6.5051 24.7337C6.60318 24.8318 6.73924 24.8883 6.87793 24.8883C7.01662 24.8883 7.15268 24.8319 7.25076 24.7337C7.3493 24.6346 7.40482 24.5007 7.40527 24.361C7.40527 24.2222 7.34885 24.0862 7.25076 23.9881Z" fill="white"/>
<path d="M17.4004 13.0742H13.6035C13.3123 13.0742 13.0762 13.3104 13.0762 13.6016V17.3984C13.0762 17.6896 13.3123 17.9258 13.6035 17.9258H17.4004C17.6916 17.9258 17.9277 17.6896 17.9277 17.3984V13.6016C17.9277 13.3104 17.6916 13.0742 17.4004 13.0742ZM16.873 16.8711H14.1309V14.1289H16.873V16.8711ZM27.209 4.84766C26.2203 4.84766 25.416 5.65196 25.416 6.64063C25.416 7.62929 26.2203 8.43359 27.209 8.43359C28.1976 8.43359 29.002 7.62929 29.002 6.64063C29.002 5.65196 28.1976 4.84766 27.209 4.84766ZM27.209 7.37891C26.8019 7.37891 26.4707 7.04773 26.4707 6.64063C26.4707 6.23352 26.8019 5.90234 27.209 5.90234C27.6161 5.90234 27.9473 6.23352 27.9473 6.64063C27.9473 7.04773 27.6161 7.37891 27.209 7.37891ZM24.4979 6.26621C24.3988 6.1677 24.2648 6.11219 24.1251 6.1117C23.9859 6.1117 23.8498 6.16813 23.7517 6.26621C23.6533 6.36538 23.598 6.49935 23.5977 6.63904C23.5977 6.77773 23.6536 6.91379 23.7517 7.01188C23.8511 7.11041 23.9852 7.16591 24.1251 7.16639C24.2638 7.16639 24.3998 7.10996 24.4979 7.01188C24.596 6.91379 24.6524 6.77773 24.6524 6.63904C24.6524 6.50035 24.596 6.3643 24.4979 6.26621Z" fill="white"/>
</svg>
